<svg width="160" height="141" viewBox="0 0 160 141" fill="none" xmlns="http://www.w3.org/2000/svg">
<path d="M1 38.769V133.086C1 135.055 1.66817 136.708 3.0045 138.044C4.34083 139.381 5.99367 140.049 7.963 140.049H34.76C35.604 140.049 84.23 139.597 85.23 139.597C86.23 139.597 86.73 137.597 86.73 136.097V135.097V133.597V132.097C86.73 129.597 85.73 128.597 84.73 128.097C83.73 127.597 35.604 128.444 34.76 128.444H12.605V48.053H132.453V59.869C132.453 60.8537 132.77 61.6977 133.403 62.401C134.036 63.1043 134.844 63.456 135.829 63.456H140.26C141.245 63.456 142.089 63.1043 142.792 62.401C143.495 61.6977 143.847 60.8537 143.847 59.869V38.769H1ZM143.847 32.017V20.412C143.847 18.5833 143.179 16.9657 141.843 15.559C140.506 14.1523 138.853 13.449 136.884 13.449H115.573V10.706C115.573 9.018 115.151 7.40033 114.307 5.853C113.463 4.30567 112.303 3.11 110.826 2.266C109.349 1.422 107.766 1 106.078 1C104.39 1 102.808 1.422 101.331 2.266C99.8535 3.11 98.693 4.30567 97.849 5.853C97.005 7.40033 96.583 9.018 96.583 10.706V13.449H48.053V10.706C48.053 8.03333 47.1387 5.78267 45.31 3.954C43.4813 2.12533 41.2658 1.211 38.6635 1.211C36.0612 1.211 33.8457 2.12533 32.017 3.954C30.1883 5.78267 29.274 8.03333 29.274 10.706V13.449H7.963C5.99367 13.449 4.34083 14.1523 3.0045 15.559C1.66817 16.9657 1 18.5833 1 20.412V32.017H143.847Z" fill="url(#paint0_linear_737_97)" stroke="url(#paint1_linear_737_97)"/>
<path d="M42.8354 62.0969V76.2034H28.73V62.0969H42.8354Z" fill="url(#paint2_linear_737_97)" stroke="url(#paint3_linear_737_97)"/>
<path d="M80.8354 62.0969V76.2034H66.73V62.0969H80.8354Z" fill="url(#paint4_linear_737_97)" stroke="url(#paint5_linear_737_97)"/>
<path d="M42.8354 80.0969V94.2034H28.73V80.0969H42.8354Z" fill="url(#paint6_linear_737_97)" stroke="url(#paint7_linear_737_97)"/>
<path d="M65.8354 99.0969V113.203H51.73V99.0969H65.8354Z" fill="url(#paint8_linear_737_97)" stroke="url(#paint9_linear_737_97)"/>
<path d="M125.29 139.832H115.406C114.73 139.832 114.155 139.342 114.047 138.675L112.696 130.283C109.94 129.572 107.31 128.482 104.853 127.032L97.9607 132.012C97.4132 132.407 96.6593 132.347 96.1818 131.869L89.1931 124.88C88.7154 124.403 88.655 123.649 89.0507 123.102L94.0305 116.21C92.5809 113.754 91.4902 111.123 90.7792 108.367L82.3872 107.015C81.7203 106.908 81.23 106.332 81.23 105.656V95.7726C81.23 95.097 81.7203 94.5215 82.3872 94.414L90.7792 93.0623C91.4901 90.3063 92.5809 87.6753 94.0304 85.2195L89.0507 78.3277C88.655 77.7802 88.7154 77.0265 89.1931 76.5487L96.1818 69.5596C96.6594 69.082 97.4133 69.0217 97.9607 69.4173L104.853 74.397C107.309 72.9471 109.94 71.8567 112.696 71.1459L114.047 62.7541C114.155 62.0872 114.73 61.5969 115.406 61.5969H125.29C125.965 61.5969 126.541 62.0872 126.648 62.7541L128 71.146C130.756 71.8567 133.387 72.9474 135.843 74.3973L142.735 69.4174C143.282 69.0217 144.036 69.0821 144.514 69.5598L151.503 76.5487C151.98 77.0263 152.041 77.7801 151.645 78.3276L146.665 85.2196C148.115 87.6764 149.206 90.3068 149.917 93.0623L158.308 94.4139C158.975 94.5214 159.466 95.097 159.466 95.7725V105.656C159.466 106.332 158.975 106.908 158.308 107.015L149.916 108.367C149.206 111.123 148.115 113.754 146.665 116.21L151.645 123.102C152.041 123.649 151.98 124.403 151.503 124.881L144.514 131.869C144.036 132.347 143.282 132.407 142.735 132.012L135.842 127.032C133.387 128.481 130.756 129.572 128 130.283L126.648 138.675C126.541 139.342 125.965 139.832 125.29 139.832ZM116.578 137.08H124.117L125.428 128.941C125.518 128.386 125.936 127.941 126.485 127.818C129.569 127.123 132.491 125.911 135.171 124.217C135.646 123.917 136.256 123.935 136.712 124.265L143.397 129.094L148.728 123.763L143.898 117.079C143.569 116.624 143.55 116.014 143.85 115.538C145.544 112.858 146.756 109.936 147.452 106.851C147.575 106.303 148.02 105.885 148.575 105.795L156.713 104.484V96.9448L148.575 95.6339C148.02 95.5445 147.575 95.1264 147.452 94.5779C146.757 91.4944 145.545 88.5716 143.85 85.8909C143.55 85.4157 143.569 84.8055 143.898 84.3498L148.728 77.6659L143.397 72.3348L136.713 77.1643C136.257 77.4935 135.646 77.5124 135.171 77.212C132.492 75.5177 129.569 74.306 126.485 73.6109C125.936 73.4873 125.518 73.0425 125.429 72.4874L124.118 64.3491H116.578L115.267 72.4872C115.178 73.0423 114.76 73.4871 114.211 73.6107C111.127 74.3061 108.204 75.5176 105.524 77.2117C105.049 77.5122 104.439 77.4931 103.983 77.1639L97.299 72.3346L91.968 77.6659L96.7973 84.3496C97.1267 84.8053 97.1456 85.4155 96.8451 85.8908C95.1513 88.5704 93.9396 91.4933 93.244 94.5781C93.1202 95.1264 92.6754 95.5445 92.1204 95.6339L83.9822 96.9448V104.484L92.1204 105.795C92.6754 105.885 93.1202 106.303 93.244 106.851C93.9395 109.936 95.1511 112.858 96.8451 115.538C97.1456 116.014 97.1267 116.624 96.7973 117.079L91.968 123.763L97.299 129.094L103.983 124.265C104.439 123.935 105.049 123.916 105.524 124.217C108.205 125.911 111.128 127.123 114.211 127.818C114.76 127.942 115.178 128.387 115.267 128.942L116.578 137.08Z" fill="url(#paint10_linear_737_97)"/>
<path d="M120.5 124C107.542 124 97 113.682 97 101C97 88.3176 107.542 77.9999 120.5 77.9999C133.458 77.9999 144 88.3176 144 101C144 113.682 133.458 124 120.5 124ZM120.5 80.9908C109.227 80.9908 100.056 89.9667 100.056 101C100.056 112.033 109.227 121.009 120.5 121.009C131.773 121.009 140.944 112.033 140.944 101C140.944 89.9667 131.773 80.9908 120.5 80.9908Z" fill="url(#paint11_linear_737_97)"/>
<path fill-rule="evenodd" clip-rule="evenodd" d="M105.812 102.437H102.875V99.5624H105.812V102.437ZM120.5 121.125C131.856 121.125 141.062 112.115 141.062 101C141.062 89.8866 131.856 80.8749 120.5 80.8749C109.144 80.8749 99.9375 89.8866 99.9375 101C99.9375 112.115 109.144 121.125 120.5 121.125ZM120.5 77.9999C133.479 77.9999 144 88.2981 144 101C144 113.703 133.479 124 120.5 124C107.521 124 97 113.703 97 101C97 88.2981 107.521 77.9999 120.5 77.9999ZM111.576 89.8923L109.543 91.8861L107.51 89.8923L109.543 87.8999L111.576 89.8923ZM112.006 110.743L109.929 112.776L107.853 110.743L109.929 108.711L112.006 110.743ZM120.5 83.7499C121.311 83.7499 121.969 84.3924 121.969 85.1874V99.5955H133.719C134.531 99.5955 135.188 100.241 135.188 101.034C135.188 101.828 134.531 102.47 133.719 102.47H120.5C119.688 102.47 119.031 101.828 119.031 101.034V85.1874C119.031 84.3924 119.688 83.7499 120.5 83.7499ZM129.765 89.9642L131.842 87.9316L133.918 89.9642L131.842 91.9968L129.765 89.9642ZM134.111 110.821L132.078 112.815L130.045 110.821L132.078 108.827L134.111 110.821ZM121.969 118.25H119.031V115.375H121.969V118.25Z" fill="url(#paint12_linear_737_97)"/>
<path d="M66.3353 79.5969H51.23V94.7034H66.3353V79.5969Z" fill="url(#paint13_linear_737_97)"/>
<defs>
<linearGradient id="paint0_linear_737_97" x1="1.82666" y1="2.49381" x2="171.623" y2="75.0177" gradientUnits="userSpaceOnUse">
<stop stop-color="#01122C"/>
<stop offset="0.493299" stop-color="#072A62"/>
<stop offset="1" stop-color="#0D47A1"/>
</linearGradient>
<linearGradient id="paint1_linear_737_97" x1="1.82666" y1="2.49381" x2="171.623" y2="75.0177" gradientUnits="userSpaceOnUse">
<stop stop-color="#01122C"/>
<stop offset="0.493299" stop-color="#072A62"/>
<stop offset="1" stop-color="#0D47A1"/>
</linearGradient>
<linearGradient id="paint2_linear_737_97" x1="28.3174" y1="61.7592" x2="46.4194" y2="69.2848" gradientUnits="userSpaceOnUse">
<stop stop-color="#01122C"/>
<stop offset="0.493299" stop-color="#072A62"/>
<stop offset="1" stop-color="#0D47A1"/>
</linearGradient>
<linearGradient id="paint3_linear_737_97" x1="28.3174" y1="61.7592" x2="46.4194" y2="69.2848" gradientUnits="userSpaceOnUse">
<stop stop-color="#01122C"/>
<stop offset="0.493299" stop-color="#072A62"/>
<stop offset="1" stop-color="#0D47A1"/>
</linearGradient>
<linearGradient id="paint4_linear_737_97" x1="66.3174" y1="61.7592" x2="84.4194" y2="69.2848" gradientUnits="userSpaceOnUse">
<stop stop-color="#01122C"/>
<stop offset="0.493299" stop-color="#072A62"/>
<stop offset="1" stop-color="#0D47A1"/>
</linearGradient>
<linearGradient id="paint5_linear_737_97" x1="66.3174" y1="61.7592" x2="84.4194" y2="69.2848" gradientUnits="userSpaceOnUse">
<stop stop-color="#01122C"/>
<stop offset="0.493299" stop-color="#072A62"/>
<stop offset="1" stop-color="#0D47A1"/>
</linearGradient>
<linearGradient id="paint6_linear_737_97" x1="28.3174" y1="79.7592" x2="46.4194" y2="87.2848" gradientUnits="userSpaceOnUse">
<stop stop-color="#01122C"/>
<stop offset="0.493299" stop-color="#072A62"/>
<stop offset="1" stop-color="#0D47A1"/>
</linearGradient>
<linearGradient id="paint7_linear_737_97" x1="28.3174" y1="79.7592" x2="46.4194" y2="87.2848" gradientUnits="userSpaceOnUse">
<stop stop-color="#01122C"/>
<stop offset="0.493299" stop-color="#072A62"/>
<stop offset="1" stop-color="#0D47A1"/>
</linearGradient>
<linearGradient id="paint8_linear_737_97" x1="51.3174" y1="98.7592" x2="69.4194" y2="106.285" gradientUnits="userSpaceOnUse">
<stop stop-color="#01122C"/>
<stop offset="0.493299" stop-color="#072A62"/>
<stop offset="1" stop-color="#0D47A1"/>
</linearGradient>
<linearGradient id="paint9_linear_737_97" x1="51.3174" y1="98.7592" x2="69.4194" y2="106.285" gradientUnits="userSpaceOnUse">
<stop stop-color="#01122C"/>
<stop offset="0.493299" stop-color="#072A62"/>
<stop offset="1" stop-color="#0D47A1"/>
</linearGradient>
<linearGradient id="paint10_linear_737_97" x1="81.6827" y1="62.4374" x2="175.437" y2="101.418" gradientUnits="userSpaceOnUse">
<stop stop-color="#01122C"/>
<stop offset="0.493299" stop-color="#072A62"/>
<stop offset="1" stop-color="#0D47A1"/>
</linearGradient>
<linearGradient id="paint11_linear_737_97" x1="97.272" y1="78.4941" x2="153.233" y2="102.266" gradientUnits="userSpaceOnUse">
<stop stop-color="#01122C"/>
<stop offset="0.493299" stop-color="#072A62"/>
<stop offset="1" stop-color="#0D47A1"/>
</linearGradient>
<linearGradient id="paint12_linear_737_97" x1="143.728" y1="78.4941" x2="87.7675" y2="102.266" gradientUnits="userSpaceOnUse">
<stop stop-color="#01122C"/>
<stop offset="0.493299" stop-color="#072A62"/>
<stop offset="1" stop-color="#0D47A1"/>
</linearGradient>
<linearGradient id="paint13_linear_737_97" x1="51.3174" y1="79.7592" x2="69.4194" y2="87.2848" gradientUnits="userSpaceOnUse">
<stop stop-color="#01122C"/>
<stop offset="0.493299" stop-color="#072A62"/>
<stop offset="1" stop-color="#0D47A1"/>
</linearGradient>
</defs>
</svg>
