<svg width="385" height="141" viewBox="0 0 385 141" fill="none" xmlns="http://www.w3.org/2000/svg">
<path d="M237.005 82.767C237.119 82.8637 237.245 82.9603 237.383 83.057C239.376 84.4343 241.656 85.2559 244.223 85.5217C244.818 85.57 245.38 85.5942 245.907 85.5942C248.198 85.5942 250.306 85.0626 252.231 83.9993C254.156 82.9361 255.21 81.3413 255.393 79.2149C255.416 79.0216 255.428 78.8404 255.428 78.6712C255.428 77.5597 255.095 76.4844 254.431 75.4454C253.789 74.3822 252.861 73.3432 251.647 72.3283C250.432 71.3134 249.08 70.3589 247.591 69.4649C246.262 68.6433 244.933 67.858 243.604 67.1089L243.088 66.7465C241.553 65.9007 240.041 64.9825 238.551 63.9918C237.085 63.0011 235.756 61.8654 234.564 60.5847C233.396 59.304 232.491 57.8421 231.849 56.199C231.322 54.8942 231.058 53.4323 231.058 51.8133C231.058 51.3542 231.081 50.8951 231.127 50.436C231.402 47.3672 232.399 44.7333 234.117 42.5344C235.859 40.3355 238.093 38.7045 240.82 37.6413C242.928 36.7955 245.185 36.3727 247.591 36.3727C248.255 36.3727 248.943 36.4089 249.653 36.4814C253.48 36.8197 256.665 38.0037 259.208 40.0335L259.621 40.3959L253.64 46.7027C252.242 45.8086 250.696 45.277 249 45.1079C248.588 45.0595 248.198 45.0354 247.832 45.0354C245.884 45.0354 244.062 45.6032 242.367 46.7389C240.694 47.8746 239.766 49.4332 239.582 51.4146C239.56 51.5837 239.548 51.765 239.548 51.9583C239.548 53.0215 239.88 54.0001 240.545 54.8942C241.209 55.7882 242.195 56.6581 243.501 57.5038C244.83 58.3254 246.365 59.2074 248.107 60.1498L248.381 60.331L250.272 61.3821C252.999 62.9286 255.428 64.5596 257.559 66.2753C259.69 67.9909 261.328 69.9361 262.474 72.1108C263.413 73.9472 263.883 76.0132 263.883 78.3088C263.883 78.8162 263.871 79.3237 263.848 79.8311C263.551 83.1174 262.462 85.9083 260.583 88.2038C258.704 90.4994 256.275 92.1908 253.297 93.2782C251.028 94.0998 248.588 94.5106 245.976 94.5106C245.128 94.5106 244.257 94.4622 243.363 94.3656C238.987 93.9548 235.286 92.6137 232.261 90.3423C231.757 89.9799 231.276 89.5932 230.818 89.1825L237.005 82.767Z" fill="url(#paint0_linear_737_62)"/>
<path d="M176.237 93.4232L202.634 35.4303L229.031 93.4232H219.132L202.634 58.6275L186.136 93.4232H176.237Z" fill="url(#paint1_linear_737_62)"/>
<path d="M254.02 78.6712C254.02 77.8924 253.792 77.1022 253.264 76.2761L253.253 76.2587L253.243 76.2428C252.707 75.3539 251.898 74.4333 250.773 73.4925C249.62 72.5292 248.328 71.6158 246.894 70.7552L246.879 70.7451C245.566 69.9332 244.252 69.1577 242.94 68.4181L242.88 68.3848L242.823 68.3442L242.367 68.0223C240.821 67.1684 239.299 66.244 237.801 65.2473L237.793 65.2415C236.239 64.1921 234.827 62.9864 233.56 61.6242L233.55 61.6141C232.259 60.1992 231.256 58.5799 230.547 56.7644C229.941 55.2561 229.651 53.5971 229.651 51.8133C229.651 51.3021 229.677 50.7912 229.728 50.2808C230.029 46.9485 231.122 44.0335 233.032 41.5906L233.037 41.5833C234.945 39.1749 237.385 37.4005 240.32 36.2538L240.749 36.0871C242.902 35.2844 245.186 34.8881 247.591 34.8881C248.304 34.8881 249.037 34.9273 249.79 35.004C253.568 35.3406 256.832 36.4679 259.526 38.443L260.058 38.849L260.111 38.8925L261.707 40.2959L253.855 48.5758L252.91 47.9727C251.702 47.1999 250.361 46.7342 248.868 46.5852H248.856L248.845 46.5838C248.478 46.5407 248.14 46.52 247.832 46.52C246.163 46.52 244.603 46.9992 243.127 47.9858L243.128 47.9872C241.795 48.8924 241.123 50.0562 240.984 51.5581L240.981 51.5915L240.977 51.6248C240.965 51.716 240.956 51.8263 240.956 51.9583C240.956 52.6658 241.169 53.3261 241.653 53.9779C242.181 54.6879 243.019 55.4488 244.238 56.2381C245.208 56.8371 246.293 57.4717 247.496 58.1418L248.75 58.829L248.802 58.858L248.853 58.8913L249.075 59.0378L250.929 60.0686L250.939 60.0744C253.721 61.6524 256.214 63.3253 258.413 65.0951C260.535 66.8041 262.229 68.753 263.464 70.948L263.704 71.3902L263.713 71.4062C264.774 73.4803 265.291 75.7924 265.291 78.3088C265.291 78.8398 265.279 79.3712 265.255 79.9021L265.254 79.9369L265.25 79.9717C264.927 83.5357 263.736 86.6245 261.649 89.1738C259.593 91.686 256.947 93.5172 253.757 94.6816H253.755C251.326 95.561 248.73 95.9952 245.976 95.9952C245.077 95.9952 244.159 95.9444 243.221 95.8429C238.659 95.412 234.723 94.0041 231.468 91.5674C230.924 91.1758 230.403 90.7585 229.907 90.3133L228.734 89.2622L236.909 80.7851L237.885 81.6071C237.962 81.6718 238.051 81.7413 238.154 81.8145C239.937 83.0462 241.989 83.7948 244.34 84.0414C244.901 84.0867 245.423 84.1095 245.907 84.1095V85.5941C245.38 85.5941 244.819 85.57 244.223 85.5217C241.656 85.2559 239.377 84.4343 237.383 83.057C237.246 82.9603 237.12 82.8636 237.005 82.767L230.818 89.1825C231.276 89.5932 231.758 89.9799 232.262 90.3423C235.286 92.6137 238.987 93.9548 243.364 94.3656C244.257 94.4622 245.128 94.5106 245.976 94.5106C248.588 94.5106 251.028 94.0998 253.297 93.2782C256.276 92.1908 258.705 90.4994 260.583 88.2038C262.462 85.9083 263.551 83.1174 263.849 79.8311C263.872 79.3237 263.883 78.8162 263.883 78.3088C263.883 76.0132 263.413 73.9472 262.474 72.1108C261.328 69.9361 259.69 67.9909 257.559 66.2753C255.428 64.5596 252.999 62.9286 250.272 61.3821L248.382 60.331L248.107 60.1498C246.365 59.2074 244.83 58.3254 243.501 57.5038C242.195 56.6581 241.21 55.7882 240.545 54.8942C239.881 54.0001 239.548 53.0215 239.548 51.9583C239.548 51.765 239.56 51.5837 239.583 51.4146C239.766 49.4332 240.694 47.8746 242.367 46.7389C244.062 45.6032 245.884 45.0354 247.832 45.0354C248.198 45.0354 248.588 45.0595 249 45.1079C250.696 45.277 252.243 45.8086 253.641 46.7027L259.621 40.3959L259.209 40.0335C256.665 38.0037 253.48 36.8197 249.653 36.4814C248.943 36.4089 248.256 36.3727 247.591 36.3727C245.185 36.3727 242.928 36.7955 240.82 37.6413C238.093 38.7045 235.859 40.3355 234.118 42.5344C232.399 44.7333 231.402 47.3672 231.127 50.436C231.082 50.8951 231.059 51.3542 231.059 51.8133C231.059 53.4323 231.322 54.8942 231.849 56.199C232.491 57.8421 233.396 59.304 234.565 60.5847C235.756 61.8654 237.085 63.0011 238.552 63.9918C240.041 64.9825 241.553 65.9007 243.089 66.7465L243.604 67.1089C244.933 67.858 246.262 68.6433 247.591 69.4649C249.081 70.3589 250.433 71.3134 251.647 72.3283C252.861 73.3431 253.789 74.3822 254.431 75.4454C255.096 76.4844 255.428 77.5597 255.428 78.6712C255.428 78.8404 255.416 79.0216 255.393 79.2149C255.21 81.3413 254.156 82.9361 252.231 83.9993C250.307 85.0625 248.198 85.5941 245.907 85.5941V84.1095C247.984 84.1095 249.866 83.6301 251.578 82.6844C253.116 81.8346 253.855 80.662 253.991 79.0801L253.997 79.0308C254.013 78.8896 254.02 78.7704 254.02 78.6712Z" fill="url(#paint2_linear_737_62)"/>
<path d="M231.268 94.9078H218.262L202.634 61.9475L187.006 94.9078H174L202.634 32L231.268 94.9078ZM176.237 93.4232H186.136L202.634 58.6274L219.132 93.4232H229.031L202.634 35.4303L176.237 93.4232Z" fill="url(#paint3_linear_737_62)"/>
<path d="M360.504 64.8443V91.0478C360.504 92.6314 359.847 93.4232 358.533 93.4232H353.816C353.159 93.4232 352.667 93.1263 352.338 92.5324C352.057 91.9386 351.916 91.2458 351.916 90.454V59.6481C351.916 58.411 352.385 57.2975 353.324 56.3078C354.309 55.2685 355.553 54.7489 357.054 54.7489H372.963C374.652 54.7489 376.224 55.1201 377.679 55.8624C379.134 56.5552 380.401 57.4954 381.48 58.6831C382.607 59.8708 383.475 61.2317 384.085 62.7658C384.695 64.2999 385 65.8835 385 67.5166V92.6809C385 93.1758 384.742 93.4232 384.226 93.4232H377.116C376.647 93.4232 376.412 93.1758 376.412 92.6809V69.0755C376.412 67.8383 376.224 66.8238 375.849 66.032C375.521 65.2402 375.028 64.6216 374.371 64.1762C373.761 63.7308 373.033 63.4339 372.189 63.2855C371.344 63.0875 370.429 62.9885 369.443 62.9885H362.615C362.099 62.9885 361.606 63.1865 361.137 63.5824C360.715 63.9783 360.504 64.3989 360.504 64.8443Z" fill="url(#paint4_linear_737_62)"/>
<path d="M319.991 78.4286C319.522 78.4286 319.287 78.676 319.287 79.1709C319.287 79.9132 319.475 80.606 319.851 81.2493C320.226 81.8432 320.719 82.3875 321.329 82.8824C321.986 83.3278 322.76 83.699 323.652 83.9959C324.543 84.2433 325.482 84.367 326.467 84.367H343.221C343.69 84.367 343.925 84.6145 343.925 85.1093V92.6809C343.925 93.1758 343.69 93.4232 343.221 93.4232H331.324C327.383 93.4232 324.074 93.0768 321.399 92.384C318.771 91.6912 316.636 90.6024 314.994 89.1178C313.398 87.5837 312.248 85.6537 311.544 83.3278C310.887 81.0019 310.559 78.2059 310.559 74.9397C310.559 70.9807 311.122 67.7146 312.248 65.1412C313.421 62.5184 314.923 60.4399 316.753 58.9058C318.63 57.3717 320.719 56.3077 323.018 55.7139C325.365 55.0706 327.711 54.7489 330.057 54.7489C332.967 54.7489 335.478 55.1201 337.589 55.8624C339.701 56.5552 341.437 57.5697 342.798 58.9058C344.159 60.1925 345.145 61.7761 345.755 63.6566C346.412 65.5371 346.74 67.6403 346.74 69.9662V77.6863C346.74 78.1811 346.506 78.4286 346.036 78.4286H319.991ZM319.991 69.7435H338.082C338.551 69.7435 338.786 69.4961 338.786 69.0012C338.786 67.1207 337.965 65.6361 336.322 64.5474C334.68 63.4092 332.38 62.8401 329.424 62.8401C328.485 62.8401 327.429 62.9885 326.256 63.2855C325.13 63.5824 324.027 64.003 322.948 64.5474C321.915 65.0423 321.047 65.6856 320.343 66.4774C319.639 67.2197 319.287 68.061 319.287 69.0012C319.287 69.4961 319.522 69.7435 319.991 69.7435Z" fill="url(#paint5_linear_737_62)"/>
<path d="M275.542 100.846C275.542 100.351 275.777 100.104 276.246 100.104H295.252C295.862 100.104 296.331 99.9307 296.66 99.5843C296.988 99.2378 297.223 98.8172 297.364 98.3223C297.551 97.8769 297.645 97.3573 297.645 96.7635C297.692 96.2191 297.716 95.7242 297.716 95.2789V93.4231H287.227C285.397 93.4231 283.567 93.0272 281.737 92.2354C279.953 91.4436 278.334 90.2806 276.88 88.7465C275.425 87.1629 274.228 85.2577 273.29 83.0308C272.398 80.7543 271.952 78.1563 271.952 75.2365V70.4857C271.952 68.4568 272.234 66.502 272.797 64.6215C273.36 62.741 274.228 61.0832 275.401 59.648C276.575 58.1634 278.076 56.9757 279.906 56.0849C281.784 55.1942 283.989 54.7488 286.523 54.7488H302.784C303.957 54.7488 304.896 55.0457 305.599 55.6396C306.303 56.1839 306.655 57.0994 306.655 58.3861V98.1739C306.655 99.2131 306.397 100.327 305.881 101.514C305.412 102.751 304.755 103.865 303.91 104.855C303.065 105.894 302.08 106.735 300.954 107.379C299.827 108.071 298.631 108.418 297.364 108.418H276.246C275.777 108.418 275.542 108.17 275.542 107.675V100.846ZM281.385 74.3457C281.385 76.0778 281.549 77.5624 281.877 78.7996C282.253 80.0368 282.863 81.076 283.708 81.9173C284.552 82.7586 285.679 83.3772 287.086 83.7731C288.541 84.169 290.348 84.3669 292.507 84.3669H297.012C297.481 84.3669 297.716 84.1195 297.716 83.6246V64.5473C297.716 64.0524 297.481 63.805 297.012 63.805H287.79C285.538 63.805 283.895 64.572 282.863 66.1061C281.877 67.6402 281.385 69.7434 281.385 72.4157V74.3457Z" fill="url(#paint6_linear_737_62)"/>
<path d="M1 38.769V133.086C1 135.055 1.66817 136.708 3.0045 138.044C4.34083 139.381 5.99367 140.049 7.963 140.049H34.76C35.604 140.049 84.23 139.597 85.23 139.597C86.23 139.597 86.73 137.597 86.73 136.097V135.097V133.597V132.097C86.73 129.597 85.73 128.597 84.73 128.097C83.73 127.597 35.604 128.444 34.76 128.444H12.605V48.053H132.453V59.869C132.453 60.8537 132.77 61.6977 133.403 62.401C134.036 63.1043 134.844 63.456 135.829 63.456H140.26C141.245 63.456 142.089 63.1043 142.792 62.401C143.495 61.6977 143.847 60.8537 143.847 59.869V38.769H1ZM143.847 32.017V20.412C143.847 18.5833 143.179 16.9657 141.843 15.559C140.506 14.1523 138.853 13.449 136.884 13.449H115.573V10.706C115.573 9.018 115.151 7.40033 114.307 5.853C113.463 4.30567 112.303 3.11 110.826 2.266C109.349 1.422 107.766 1 106.078 1C104.39 1 102.808 1.422 101.331 2.266C99.8535 3.11 98.693 4.30567 97.849 5.853C97.005 7.40033 96.583 9.018 96.583 10.706V13.449H48.053V10.706C48.053 8.03333 47.1387 5.78267 45.31 3.954C43.4813 2.12533 41.2658 1.211 38.6635 1.211C36.0612 1.211 33.8457 2.12533 32.017 3.954C30.1883 5.78267 29.274 8.03333 29.274 10.706V13.449H7.963C5.99367 13.449 4.34083 14.1523 3.0045 15.559C1.66817 16.9657 1 18.5833 1 20.412V32.017H143.847Z" fill="url(#paint7_linear_737_62)"/>
<path d="M143.347 39.2686H1.5V133.086C1.5 134.929 2.12014 136.453 3.3584 137.691C4.59656 138.929 6.1202 139.549 7.96289 139.549H34.7598C35.1787 139.549 47.5418 139.436 59.9316 139.323C72.3158 139.21 84.7274 139.097 85.2305 139.097C85.295 139.097 85.3878 139.069 85.5127 138.929C85.6423 138.783 85.7713 138.55 85.8848 138.238C86.1107 137.617 86.2305 136.802 86.2305 136.097V132.097C86.2304 130.913 85.993 130.133 85.6758 129.604C85.3702 129.095 84.9674 128.782 84.5449 128.564C84.5236 128.561 84.4918 128.556 84.4473 128.551C84.3405 128.539 84.1875 128.528 83.9873 128.518C83.5884 128.497 83.0261 128.481 82.3213 128.469C80.913 128.444 78.9518 128.436 76.6201 128.44C71.9571 128.45 65.823 128.508 59.6924 128.583C47.4394 128.732 35.1852 128.944 34.7598 128.944H12.1055V47.5527H132.953V59.8691C132.953 60.7357 133.228 61.4589 133.774 62.0664C134.308 62.6596 134.98 62.9561 135.829 62.9561H140.26C141.11 62.9561 141.828 62.6584 142.438 62.0479C143.049 61.4373 143.347 60.7196 143.347 59.8691V39.2686ZM47.5527 10.7061C47.5527 8.16104 46.6875 6.03907 44.9561 4.30762C43.2218 2.57349 41.1337 1.71094 38.6631 1.71094C36.1926 1.71103 34.1043 2.57348 32.3701 4.30762C30.6388 6.03902 29.7744 8.16116 29.7744 10.7061V13.9492H7.96289C6.12839 13.9492 4.60749 14.5978 3.36719 15.9033C2.1132 17.2233 1.5 18.72 1.5 20.4121V31.5166H143.347V20.4121C143.347 18.7201 142.734 17.2233 141.48 15.9033C140.24 14.5977 138.718 13.9492 136.884 13.9492H115.073V10.7061C115.073 9.10558 114.674 7.56993 113.868 6.09277C113.067 4.62368 111.971 3.49652 110.577 2.7002C109.175 1.89911 107.678 1.50002 106.078 1.5C104.478 1.5 102.98 1.89901 101.578 2.7002C100.185 3.49651 99.0893 4.62381 98.2881 6.09277C97.4824 7.56996 97.083 9.10554 97.083 10.7061V13.9492H47.5527V10.7061ZM144.347 59.8691C144.347 60.9879 143.942 61.9589 143.146 62.7549C142.35 63.5508 141.378 63.9561 140.26 63.9561H135.829C134.709 63.9561 133.763 63.5487 133.031 62.7354C132.312 61.9362 131.953 60.9718 131.953 59.8691V48.5527H13.1055V127.944H34.7598C35.1783 127.944 47.4097 127.732 59.6807 127.583C65.812 127.508 71.95 127.45 76.6182 127.44C78.9517 127.436 80.9207 127.444 82.3389 127.469C83.0472 127.481 83.6228 127.498 84.0391 127.52C84.2463 127.53 84.4207 127.542 84.5547 127.557C84.6213 127.564 84.6853 127.573 84.7412 127.583C84.7824 127.591 84.8699 127.608 84.9531 127.649C85.5166 127.931 86.0992 128.365 86.5342 129.09C86.9668 129.811 87.2304 130.781 87.2305 132.097V136.097C87.2305 136.891 87.0991 137.827 86.8252 138.58C86.6887 138.955 86.5051 139.317 86.2598 139.593C86.0101 139.874 85.6657 140.097 85.2305 140.097C84.7335 140.097 72.3312 140.21 59.9414 140.323C47.5573 140.436 35.1848 140.549 34.7598 140.549H7.96289C5.86741 140.549 4.08568 139.833 2.65137 138.398C1.21696 136.964 0.5 135.182 0.5 133.086V38.2686H144.347V59.8691ZM116.073 12.9492H136.884C138.988 12.9492 140.773 13.7071 142.205 15.2148C143.624 16.7082 144.347 18.447 144.347 20.4121V32.5166H0.5V20.4121C0.5 18.447 1.22312 16.7081 2.6416 15.2148C4.0739 13.7072 5.85888 12.9492 7.96289 12.9492H28.7744V10.7061C28.7744 7.90586 29.7374 5.52643 31.6631 3.60059C33.5861 1.67759 35.9293 0.711035 38.6631 0.710938C41.397 0.710938 43.74 1.6776 45.6631 3.60059C47.589 5.52647 48.5527 7.90574 48.5527 10.7061V12.9492H96.083V10.7061C96.083 8.93065 96.5279 7.2307 97.4102 5.61328C98.2968 3.98796 99.5219 2.72365 101.082 1.83203C102.634 0.945214 104.302 0.5 106.078 0.5C107.854 0.50002 109.521 0.945305 111.073 1.83203C112.634 2.72368 113.859 3.98778 114.746 5.61328C115.628 7.2307 116.073 8.93065 116.073 10.7061V12.9492Z" fill="url(#paint8_linear_737_62)"/>
<path d="M43.3353 61.5969H28.23V76.7034H43.3353V61.5969Z" fill="url(#paint9_linear_737_62)"/>
<path d="M81.3353 61.5969H66.23V76.7034H81.3353V61.5969Z" fill="url(#paint10_linear_737_62)"/>
<path d="M43.3353 79.5969H28.23V94.7034H43.3353V79.5969Z" fill="url(#paint11_linear_737_62)"/>
<path d="M66.3353 98.5969H51.23V113.703H66.3353V98.5969Z" fill="url(#paint12_linear_737_62)"/>
<path d="M125.29 139.832H115.406C114.73 139.832 114.155 139.342 114.047 138.675L112.696 130.283C109.94 129.572 107.31 128.482 104.853 127.032L97.9607 132.012C97.4132 132.407 96.6593 132.347 96.1818 131.869L89.1931 124.88C88.7154 124.403 88.655 123.649 89.0507 123.102L94.0305 116.21C92.5809 113.754 91.4902 111.123 90.7792 108.367L82.3872 107.015C81.7203 106.908 81.23 106.332 81.23 105.656V95.7726C81.23 95.097 81.7203 94.5215 82.3872 94.414L90.7792 93.0623C91.4901 90.3063 92.5809 87.6753 94.0304 85.2195L89.0507 78.3277C88.655 77.7802 88.7154 77.0265 89.1931 76.5487L96.1818 69.5596C96.6594 69.082 97.4133 69.0217 97.9607 69.4173L104.853 74.397C107.309 72.9471 109.94 71.8567 112.696 71.1459L114.047 62.7541C114.155 62.0872 114.73 61.5969 115.406 61.5969H125.29C125.965 61.5969 126.541 62.0872 126.648 62.7541L128 71.146C130.756 71.8567 133.387 72.9474 135.843 74.3973L142.735 69.4174C143.282 69.0217 144.036 69.0821 144.514 69.5598L151.503 76.5487C151.98 77.0263 152.041 77.7801 151.645 78.3276L146.665 85.2196C148.115 87.6764 149.206 90.3068 149.917 93.0623L158.308 94.4139C158.975 94.5214 159.466 95.097 159.466 95.7725V105.656C159.466 106.332 158.975 106.908 158.308 107.015L149.916 108.367C149.206 111.123 148.115 113.754 146.665 116.21L151.645 123.102C152.041 123.649 151.98 124.403 151.503 124.881L144.514 131.869C144.036 132.347 143.282 132.407 142.735 132.012L135.842 127.032C133.387 128.481 130.756 129.572 128 130.283L126.648 138.675C126.541 139.342 125.965 139.832 125.29 139.832ZM116.578 137.08H124.117L125.428 128.941C125.518 128.386 125.936 127.941 126.485 127.818C129.569 127.123 132.491 125.911 135.171 124.217C135.646 123.917 136.256 123.935 136.712 124.265L143.397 129.094L148.728 123.763L143.898 117.079C143.569 116.624 143.55 116.014 143.85 115.538C145.544 112.858 146.756 109.936 147.452 106.851C147.575 106.303 148.02 105.885 148.575 105.795L156.713 104.484V96.9448L148.575 95.6339C148.02 95.5445 147.575 95.1264 147.452 94.5779C146.757 91.4944 145.545 88.5716 143.85 85.8909C143.55 85.4157 143.569 84.8055 143.898 84.3498L148.728 77.6659L143.397 72.3348L136.713 77.1643C136.257 77.4935 135.646 77.5124 135.171 77.212C132.492 75.5177 129.569 74.306 126.485 73.6109C125.936 73.4873 125.518 73.0425 125.429 72.4874L124.118 64.3491H116.578L115.267 72.4872C115.178 73.0423 114.76 73.4871 114.211 73.6107C111.127 74.3061 108.204 75.5176 105.524 77.2117C105.049 77.5122 104.439 77.4931 103.983 77.1639L97.299 72.3346L91.968 77.6659L96.7973 84.3496C97.1267 84.8053 97.1456 85.4155 96.8451 85.8908C95.1513 88.5704 93.9396 91.4933 93.244 94.5781C93.1202 95.1264 92.6754 95.5445 92.1204 95.6339L83.9822 96.9448V104.484L92.1204 105.795C92.6754 105.885 93.1202 106.303 93.244 106.851C93.9395 109.936 95.1511 112.858 96.8451 115.538C97.1456 116.014 97.1267 116.624 96.7973 117.079L91.968 123.763L97.299 129.094L103.983 124.265C104.439 123.935 105.049 123.916 105.524 124.217C108.205 125.911 111.128 127.123 114.211 127.818C114.76 127.942 115.178 128.387 115.267 128.942L116.578 137.08Z" fill="url(#paint13_linear_737_62)"/>
<path d="M120.5 124C107.542 124 97 113.682 97 101C97 88.3176 107.542 77.9999 120.5 77.9999C133.458 77.9999 144 88.3176 144 101C144 113.682 133.458 124 120.5 124ZM120.5 80.9908C109.227 80.9908 100.056 89.9667 100.056 101C100.056 112.033 109.227 121.009 120.5 121.009C131.773 121.009 140.944 112.033 140.944 101C140.944 89.9667 131.773 80.9908 120.5 80.9908Z" fill="url(#paint14_linear_737_62)"/>
<path fill-rule="evenodd" clip-rule="evenodd" d="M105.812 102.437H102.875V99.5624H105.812V102.437ZM120.5 121.125C131.856 121.125 141.062 112.115 141.062 101C141.062 89.8866 131.856 80.8749 120.5 80.8749C109.144 80.8749 99.9375 89.8866 99.9375 101C99.9375 112.115 109.144 121.125 120.5 121.125ZM120.5 77.9999C133.479 77.9999 144 88.2981 144 101C144 113.703 133.479 124 120.5 124C107.521 124 97 113.703 97 101C97 88.2981 107.521 77.9999 120.5 77.9999ZM111.576 89.8923L109.543 91.8861L107.51 89.8923L109.543 87.8999L111.576 89.8923ZM112.006 110.743L109.929 112.776L107.853 110.743L109.929 108.711L112.006 110.743ZM120.5 83.7499C121.311 83.7499 121.969 84.3924 121.969 85.1874V99.5955H133.719C134.531 99.5955 135.188 100.241 135.188 101.034C135.188 101.828 134.531 102.47 133.719 102.47H120.5C119.688 102.47 119.031 101.828 119.031 101.034V85.1874C119.031 84.3924 119.688 83.7499 120.5 83.7499ZM129.765 89.9642L131.842 87.9316L133.918 89.9642L131.842 91.9968L129.765 89.9642ZM134.111 110.821L132.078 112.815L130.045 110.821L132.078 108.827L134.111 110.821ZM121.969 118.25H119.031V115.375H121.969V118.25Z" fill="url(#paint15_linear_737_62)"/>
<path d="M66.3353 79.5969H51.23V94.7034H66.3353V79.5969Z" fill="url(#paint16_linear_737_62)"/>
<defs>
<linearGradient id="paint0_linear_737_62" x1="231.009" y1="36.9973" x2="275.022" y2="47.4044" gradientUnits="userSpaceOnUse">
<stop stop-color="#01122C"/>
<stop offset="0.493299" stop-color="#072A62"/>
<stop offset="1" stop-color="#0D47A1"/>
</linearGradient>
<linearGradient id="paint1_linear_737_62" x1="176.542" y1="36.0533" x2="241.447" y2="60.6192" gradientUnits="userSpaceOnUse">
<stop stop-color="#01122C"/>
<stop offset="0.493299" stop-color="#072A62"/>
<stop offset="1" stop-color="#0D47A1"/>
</linearGradient>
<linearGradient id="paint2_linear_737_62" x1="228.945" y1="35.5445" x2="277.333" y2="47.58" gradientUnits="userSpaceOnUse">
<stop stop-color="#01122C"/>
<stop offset="0.493299" stop-color="#072A62"/>
<stop offset="1" stop-color="#0D47A1"/>
</linearGradient>
<linearGradient id="paint3_linear_737_62" x1="174.331" y1="32.6758" x2="244.736" y2="59.3232" gradientUnits="userSpaceOnUse">
<stop stop-color="#01122C"/>
<stop offset="0.493299" stop-color="#072A62"/>
<stop offset="1" stop-color="#0D47A1"/>
</linearGradient>
<linearGradient id="paint4_linear_737_62" x1="352.107" y1="55.1644" x2="393.386" y2="69.8459" gradientUnits="userSpaceOnUse">
<stop stop-color="#01122C"/>
<stop offset="0.493299" stop-color="#072A62"/>
<stop offset="1" stop-color="#0D47A1"/>
</linearGradient>
<linearGradient id="paint5_linear_737_62" x1="310.768" y1="55.1644" x2="354.939" y2="72.3453" gradientUnits="userSpaceOnUse">
<stop stop-color="#01122C"/>
<stop offset="0.493299" stop-color="#072A62"/>
<stop offset="1" stop-color="#0D47A1"/>
</linearGradient>
<linearGradient id="paint6_linear_737_62" x1="272.153" y1="55.3253" x2="317.641" y2="67.5544" gradientUnits="userSpaceOnUse">
<stop stop-color="#01122C"/>
<stop offset="0.493299" stop-color="#072A62"/>
<stop offset="1" stop-color="#0D47A1"/>
</linearGradient>
<linearGradient id="paint7_linear_737_62" x1="1.82666" y1="2.49381" x2="171.623" y2="75.0177" gradientUnits="userSpaceOnUse">
<stop stop-color="#01122C"/>
<stop offset="0.493299" stop-color="#072A62"/>
<stop offset="1" stop-color="#0D47A1"/>
</linearGradient>
<linearGradient id="paint8_linear_737_62" x1="1.33245" y1="2.00455" x2="172.327" y2="75.0263" gradientUnits="userSpaceOnUse">
<stop stop-color="#01122C"/>
<stop offset="0.493299" stop-color="#072A62"/>
<stop offset="1" stop-color="#0D47A1"/>
</linearGradient>
<linearGradient id="paint9_linear_737_62" x1="28.3174" y1="61.7592" x2="46.4194" y2="69.2848" gradientUnits="userSpaceOnUse">
<stop stop-color="#01122C"/>
<stop offset="0.493299" stop-color="#072A62"/>
<stop offset="1" stop-color="#0D47A1"/>
</linearGradient>
<linearGradient id="paint10_linear_737_62" x1="66.3174" y1="61.7592" x2="84.4194" y2="69.2848" gradientUnits="userSpaceOnUse">
<stop stop-color="#01122C"/>
<stop offset="0.493299" stop-color="#072A62"/>
<stop offset="1" stop-color="#0D47A1"/>
</linearGradient>
<linearGradient id="paint11_linear_737_62" x1="28.3174" y1="79.7592" x2="46.4194" y2="87.2848" gradientUnits="userSpaceOnUse">
<stop stop-color="#01122C"/>
<stop offset="0.493299" stop-color="#072A62"/>
<stop offset="1" stop-color="#0D47A1"/>
</linearGradient>
<linearGradient id="paint12_linear_737_62" x1="51.3174" y1="98.7592" x2="69.4194" y2="106.285" gradientUnits="userSpaceOnUse">
<stop stop-color="#01122C"/>
<stop offset="0.493299" stop-color="#072A62"/>
<stop offset="1" stop-color="#0D47A1"/>
</linearGradient>
<linearGradient id="paint13_linear_737_62" x1="81.6827" y1="62.4374" x2="175.437" y2="101.418" gradientUnits="userSpaceOnUse">
<stop stop-color="#01122C"/>
<stop offset="0.493299" stop-color="#072A62"/>
<stop offset="1" stop-color="#0D47A1"/>
</linearGradient>
<linearGradient id="paint14_linear_737_62" x1="97.272" y1="78.4941" x2="153.233" y2="102.266" gradientUnits="userSpaceOnUse">
<stop stop-color="#01122C"/>
<stop offset="0.493299" stop-color="#072A62"/>
<stop offset="1" stop-color="#0D47A1"/>
</linearGradient>
<linearGradient id="paint15_linear_737_62" x1="143.728" y1="78.4941" x2="87.7675" y2="102.266" gradientUnits="userSpaceOnUse">
<stop stop-color="#01122C"/>
<stop offset="0.493299" stop-color="#072A62"/>
<stop offset="1" stop-color="#0D47A1"/>
</linearGradient>
<linearGradient id="paint16_linear_737_62" x1="51.3174" y1="79.7592" x2="69.4194" y2="87.2848" gradientUnits="userSpaceOnUse">
<stop stop-color="#01122C"/>
<stop offset="0.493299" stop-color="#072A62"/>
<stop offset="1" stop-color="#0D47A1"/>
</linearGradient>
</defs>
</svg>
