<svg width="160" height="211" viewBox="0 0 160 211" fill="none" xmlns="http://www.w3.org/2000/svg">
<path d="M1 38.769V133.086C1 135.055 1.66817 136.708 3.0045 138.044C4.34083 139.381 5.99367 140.049 7.963 140.049H34.76C35.604 140.049 84.23 139.597 85.23 139.597C86.23 139.597 86.73 137.597 86.73 136.097V135.097V133.597V132.097C86.73 129.597 85.73 128.597 84.73 128.097C83.73 127.597 35.604 128.444 34.76 128.444H12.605V48.053H132.453V59.869C132.453 60.8537 132.77 61.6977 133.403 62.401C134.036 63.1043 134.844 63.456 135.829 63.456H140.26C141.245 63.456 142.089 63.1043 142.792 62.401C143.495 61.6977 143.847 60.8537 143.847 59.869V38.769H1ZM143.847 32.017V20.412C143.847 18.5833 143.179 16.9657 141.843 15.559C140.506 14.1523 138.853 13.449 136.884 13.449H115.573V10.706C115.573 9.018 115.151 7.40033 114.307 5.853C113.463 4.30567 112.303 3.11 110.826 2.266C109.349 1.422 107.766 1 106.078 1C104.39 1 102.808 1.422 101.331 2.266C99.8535 3.11 98.693 4.30567 97.849 5.853C97.005 7.40033 96.583 9.018 96.583 10.706V13.449H48.053V10.706C48.053 8.03333 47.1387 5.78267 45.31 3.954C43.4813 2.12533 41.2658 1.211 38.6635 1.211C36.0612 1.211 33.8457 2.12533 32.017 3.954C30.1883 5.78267 29.274 8.03333 29.274 10.706V13.449H7.963C5.99367 13.449 4.34083 14.1523 3.0045 15.559C1.66817 16.9657 1 18.5833 1 20.412V32.017H143.847Z" fill="white" stroke="white"/>
<path d="M43.3353 61.5969H28.23V76.7034H43.3353V61.5969Z" fill="white"/>
<path d="M81.3353 61.5969H66.23V76.7034H81.3353V61.5969Z" fill="white"/>
<path d="M43.3353 79.5969H28.23V94.7034H43.3353V79.5969Z" fill="white"/>
<path d="M66.3353 98.5969H51.23V113.703H66.3353V98.5969Z" fill="white"/>
<path d="M125.29 139.832H115.406C114.73 139.832 114.155 139.342 114.047 138.675L112.696 130.283C109.94 129.572 107.31 128.482 104.853 127.032L97.9607 132.012C97.4132 132.407 96.6593 132.347 96.1818 131.869L89.1931 124.88C88.7154 124.403 88.655 123.649 89.0507 123.102L94.0305 116.21C92.5809 113.754 91.4902 111.123 90.7792 108.367L82.3872 107.015C81.7203 106.908 81.23 106.332 81.23 105.656V95.7726C81.23 95.097 81.7203 94.5215 82.3872 94.414L90.7792 93.0623C91.4901 90.3063 92.5809 87.6753 94.0304 85.2195L89.0507 78.3277C88.655 77.7802 88.7154 77.0265 89.1931 76.5487L96.1818 69.5596C96.6594 69.082 97.4133 69.0217 97.9607 69.4173L104.853 74.397C107.309 72.9471 109.94 71.8567 112.696 71.1459L114.047 62.7541C114.155 62.0872 114.73 61.5969 115.406 61.5969H125.29C125.965 61.5969 126.541 62.0872 126.648 62.7541L128 71.146C130.756 71.8567 133.387 72.9474 135.843 74.3973L142.735 69.4174C143.282 69.0217 144.036 69.0821 144.514 69.5598L151.503 76.5487C151.98 77.0263 152.041 77.7801 151.645 78.3276L146.665 85.2196C148.115 87.6764 149.206 90.3068 149.917 93.0623L158.308 94.4139C158.975 94.5214 159.466 95.097 159.466 95.7725V105.656C159.466 106.332 158.975 106.908 158.308 107.015L149.916 108.367C149.206 111.123 148.115 113.754 146.665 116.21L151.645 123.102C152.041 123.649 151.98 124.403 151.503 124.881L144.514 131.869C144.036 132.347 143.282 132.407 142.735 132.012L135.842 127.032C133.387 128.481 130.756 129.572 128 130.283L126.648 138.675C126.541 139.342 125.965 139.832 125.29 139.832ZM116.578 137.08H124.117L125.428 128.941C125.518 128.386 125.936 127.941 126.485 127.818C129.569 127.123 132.491 125.911 135.171 124.217C135.646 123.917 136.256 123.935 136.712 124.265L143.397 129.094L148.728 123.763L143.898 117.079C143.569 116.624 143.55 116.014 143.85 115.538C145.544 112.858 146.756 109.936 147.452 106.851C147.575 106.303 148.02 105.885 148.575 105.795L156.713 104.484V96.9448L148.575 95.6339C148.02 95.5445 147.575 95.1264 147.452 94.5779C146.757 91.4944 145.545 88.5716 143.85 85.8909C143.55 85.4157 143.569 84.8055 143.898 84.3498L148.728 77.6659L143.397 72.3348L136.713 77.1643C136.257 77.4935 135.646 77.5124 135.171 77.212C132.492 75.5177 129.569 74.306 126.485 73.6109C125.936 73.4873 125.518 73.0425 125.429 72.4874L124.118 64.3491H116.578L115.267 72.4872C115.178 73.0423 114.76 73.4871 114.211 73.6107C111.127 74.3061 108.204 75.5176 105.524 77.2117C105.049 77.5122 104.439 77.4931 103.983 77.1639L97.299 72.3346L91.968 77.6659L96.7973 84.3496C97.1267 84.8053 97.1456 85.4155 96.8451 85.8908C95.1513 88.5704 93.9396 91.4933 93.244 94.5781C93.1202 95.1264 92.6754 95.5445 92.1204 95.6339L83.9822 96.9448V104.484L92.1204 105.795C92.6754 105.885 93.1202 106.303 93.244 106.851C93.9395 109.936 95.1511 112.858 96.8451 115.538C97.1456 116.014 97.1267 116.624 96.7973 117.079L91.968 123.763L97.299 129.094L103.983 124.265C104.439 123.935 105.049 123.916 105.524 124.217C108.205 125.911 111.128 127.123 114.211 127.818C114.76 127.942 115.178 128.387 115.267 128.942L116.578 137.08Z" fill="white"/>
<path d="M120.5 124C107.542 124 97 113.682 97 101C97 88.3176 107.542 77.9999 120.5 77.9999C133.458 77.9999 144 88.3176 144 101C144 113.682 133.458 124 120.5 124ZM120.5 80.9908C109.227 80.9908 100.056 89.9667 100.056 101C100.056 112.033 109.227 121.009 120.5 121.009C131.773 121.009 140.944 112.033 140.944 101C140.944 89.9667 131.773 80.9908 120.5 80.9908Z" fill="white"/>
<path fill-rule="evenodd" clip-rule="evenodd" d="M105.812 102.437H102.875V99.5624H105.812V102.437ZM120.5 121.125C131.856 121.125 141.062 112.115 141.062 101C141.062 89.8866 131.856 80.8749 120.5 80.8749C109.144 80.8749 99.9375 89.8866 99.9375 101C99.9375 112.115 109.144 121.125 120.5 121.125ZM120.5 77.9999C133.479 77.9999 144 88.2981 144 101C144 113.703 133.479 124 120.5 124C107.521 124 97 113.703 97 101C97 88.2981 107.521 77.9999 120.5 77.9999ZM111.576 89.8923L109.543 91.8861L107.51 89.8923L109.543 87.8999L111.576 89.8923ZM112.006 110.743L109.929 112.776L107.853 110.743L109.929 108.711L112.006 110.743ZM120.5 83.7499C121.311 83.7499 121.969 84.3924 121.969 85.1874V99.5955H133.719C134.531 99.5955 135.188 100.241 135.188 101.034C135.188 101.828 134.531 102.47 133.719 102.47H120.5C119.688 102.47 119.031 101.828 119.031 101.034V85.1874C119.031 84.3924 119.688 83.7499 120.5 83.7499ZM129.765 89.9642L131.842 87.9316L133.918 89.9642L131.842 91.9968L129.765 89.9642ZM134.111 110.821L132.078 112.815L130.045 110.821L132.078 108.827L134.111 110.821ZM121.969 118.25H119.031V115.375H121.969V118.25Z" fill="white"/>
<path d="M66.3353 79.5969H51.23V94.7034H66.3353V79.5969Z" fill="white"/>
<mask id="path-10-outside-1_737_98" maskUnits="userSpaceOnUse" x="0" y="156" width="66" height="44" fill="black">
<rect fill="white" y="156" width="66" height="44"/>
<path d="M2.5625 198L21.3125 158.938L40.0625 198H33.0312L21.3125 174.562L9.59375 198H2.5625ZM45.7266 190.822C45.8079 190.887 45.8975 190.952 45.9951 191.018C47.4111 191.945 49.0306 192.499 50.8535 192.678C51.2767 192.71 51.6755 192.727 52.0498 192.727C53.6774 192.727 55.1748 192.368 56.542 191.652C57.9092 190.936 58.6579 189.862 58.7881 188.43C58.8044 188.299 58.8125 188.177 58.8125 188.063C58.8125 187.315 58.5765 186.59 58.1045 185.891C57.6488 185.174 56.9896 184.475 56.127 183.791C55.2643 183.107 54.304 182.465 53.2461 181.862C52.3021 181.309 51.3581 180.78 50.4141 180.275L50.0479 180.031C48.9574 179.462 47.8831 178.843 46.8252 178.176C45.7835 177.508 44.8395 176.743 43.9932 175.881C43.1631 175.018 42.5202 174.034 42.0645 172.927C41.6901 172.048 41.5029 171.063 41.5029 169.973C41.5029 169.663 41.5192 169.354 41.5518 169.045C41.7471 166.978 42.4551 165.204 43.6758 163.723C44.9128 162.242 46.4997 161.143 48.4365 160.427C49.9339 159.857 51.5371 159.572 53.2461 159.572C53.7181 159.572 54.2064 159.597 54.7109 159.646C57.429 159.873 59.6914 160.671 61.498 162.038L61.791 162.282L57.543 166.53C56.5501 165.928 55.4515 165.57 54.2471 165.456C53.9541 165.424 53.6774 165.407 53.417 165.407C52.0335 165.407 50.7396 165.79 49.5352 166.555C48.347 167.32 47.6878 168.369 47.5576 169.704C47.5413 169.818 47.5332 169.94 47.5332 170.07C47.5332 170.786 47.7692 171.446 48.2412 172.048C48.7132 172.65 49.4131 173.236 50.3408 173.806C51.2848 174.359 52.3753 174.953 53.6123 175.588L53.8076 175.71L55.1504 176.418C57.0872 177.46 58.8125 178.558 60.3262 179.714C61.8398 180.869 63.0036 182.18 63.8174 183.645C64.4847 184.882 64.8184 186.273 64.8184 187.819C64.8184 188.161 64.8102 188.503 64.7939 188.845C64.5824 191.058 63.8092 192.938 62.4746 194.484C61.14 196.031 59.4147 197.17 57.2988 197.902C55.6875 198.456 53.9541 198.732 52.0986 198.732C51.4964 198.732 50.8779 198.7 50.2432 198.635C47.1344 198.358 44.5059 197.455 42.3574 195.925C41.9993 195.681 41.6576 195.42 41.332 195.144L45.7266 190.822Z"/>
</mask>
<path d="M2.5625 198L21.3125 158.938L40.0625 198H33.0312L21.3125 174.562L9.59375 198H2.5625ZM45.7266 190.822C45.8079 190.887 45.8975 190.952 45.9951 191.018C47.4111 191.945 49.0306 192.499 50.8535 192.678C51.2767 192.71 51.6755 192.727 52.0498 192.727C53.6774 192.727 55.1748 192.368 56.542 191.652C57.9092 190.936 58.6579 189.862 58.7881 188.43C58.8044 188.299 58.8125 188.177 58.8125 188.063C58.8125 187.315 58.5765 186.59 58.1045 185.891C57.6488 185.174 56.9896 184.475 56.127 183.791C55.2643 183.107 54.304 182.465 53.2461 181.862C52.3021 181.309 51.3581 180.78 50.4141 180.275L50.0479 180.031C48.9574 179.462 47.8831 178.843 46.8252 178.176C45.7835 177.508 44.8395 176.743 43.9932 175.881C43.1631 175.018 42.5202 174.034 42.0645 172.927C41.6901 172.048 41.5029 171.063 41.5029 169.973C41.5029 169.663 41.5192 169.354 41.5518 169.045C41.7471 166.978 42.4551 165.204 43.6758 163.723C44.9128 162.242 46.4997 161.143 48.4365 160.427C49.9339 159.857 51.5371 159.572 53.2461 159.572C53.7181 159.572 54.2064 159.597 54.7109 159.646C57.429 159.873 59.6914 160.671 61.498 162.038L61.791 162.282L57.543 166.53C56.5501 165.928 55.4515 165.57 54.2471 165.456C53.9541 165.424 53.6774 165.407 53.417 165.407C52.0335 165.407 50.7396 165.79 49.5352 166.555C48.347 167.32 47.6878 168.369 47.5576 169.704C47.5413 169.818 47.5332 169.94 47.5332 170.07C47.5332 170.786 47.7692 171.446 48.2412 172.048C48.7132 172.65 49.4131 173.236 50.3408 173.806C51.2848 174.359 52.3753 174.953 53.6123 175.588L53.8076 175.71L55.1504 176.418C57.0872 177.46 58.8125 178.558 60.3262 179.714C61.8398 180.869 63.0036 182.18 63.8174 183.645C64.4847 184.882 64.8184 186.273 64.8184 187.819C64.8184 188.161 64.8102 188.503 64.7939 188.845C64.5824 191.058 63.8092 192.938 62.4746 194.484C61.14 196.031 59.4147 197.17 57.2988 197.902C55.6875 198.456 53.9541 198.732 52.0986 198.732C51.4964 198.732 50.8779 198.7 50.2432 198.635C47.1344 198.358 44.5059 197.455 42.3574 195.925C41.9993 195.681 41.6576 195.42 41.332 195.144L45.7266 190.822Z" fill="white"/>
<path d="M2.5625 198L1.66098 197.567L0.973266 199H2.5625V198ZM21.3125 158.938L22.214 158.505L21.3125 156.627L20.411 158.505L21.3125 158.938ZM40.0625 198V199H41.6517L40.964 197.567L40.0625 198ZM33.0312 198L32.1368 198.447L32.4132 199H33.0312V198ZM21.3125 174.562L22.2069 174.115L21.3125 172.326L20.4181 174.115L21.3125 174.562ZM9.59375 198V199H10.2118L10.4882 198.447L9.59375 198ZM2.5625 198L3.46402 198.433L22.214 159.37L21.3125 158.938L20.411 158.505L1.66098 197.567L2.5625 198ZM21.3125 158.938L20.411 159.37L39.161 198.433L40.0625 198L40.964 197.567L22.214 158.505L21.3125 158.938ZM40.0625 198V197H33.0312V198V199H40.0625V198ZM33.0312 198L33.9257 197.553L22.2069 174.115L21.3125 174.562L20.4181 175.01L32.1368 198.447L33.0312 198ZM21.3125 174.562L20.4181 174.115L8.69932 197.553L9.59375 198L10.4882 198.447L22.2069 175.01L21.3125 174.562ZM9.59375 198V197H2.5625V198V199H9.59375V198ZM45.7266 190.822L46.3513 190.041L45.6582 189.487L45.0254 190.109L45.7266 190.822ZM45.9951 191.018L45.4404 191.85L45.4471 191.854L45.9951 191.018ZM50.8535 192.678L50.7558 193.673L50.7663 193.674L50.7768 193.675L50.8535 192.678ZM56.542 191.652L56.078 190.767L56.542 191.652ZM58.7881 188.43L57.7958 188.306L57.7937 188.322L57.7922 188.339L58.7881 188.43ZM58.1045 185.891L57.2608 186.428L57.268 186.439L57.2754 186.45L58.1045 185.891ZM56.127 183.791L55.5059 184.575L56.127 183.791ZM53.2461 181.862L52.7403 182.725L52.7514 182.731L53.2461 181.862ZM50.4141 180.275L49.8594 181.107L49.8998 181.134L49.9427 181.157L50.4141 180.275ZM50.0479 180.031L50.6026 179.199L50.5582 179.17L50.5109 179.145L50.0479 180.031ZM46.8252 178.176L46.2858 179.018L46.2917 179.022L46.8252 178.176ZM43.9932 175.881L43.2726 176.574L43.2794 176.581L43.9932 175.881ZM42.0645 172.927L42.9892 172.546L42.9845 172.535L42.0645 172.927ZM41.5518 169.045L42.5463 169.15L42.5473 169.139L41.5518 169.045ZM43.6758 163.723L42.9082 163.082L42.9041 163.087L43.6758 163.723ZM48.4365 160.427L48.7833 161.365L48.7921 161.361L48.4365 160.427ZM54.7109 159.646L54.6146 160.641L54.6274 160.642L54.7109 159.646ZM61.498 162.038L62.1382 161.27L62.1202 161.255L62.1015 161.241L61.498 162.038ZM61.791 162.282L62.4981 162.989L63.2724 162.215L62.4312 161.514L61.791 162.282ZM57.543 166.53L57.0244 167.385L57.6952 167.792L58.2501 167.237L57.543 166.53ZM54.2471 165.456L54.1366 166.45L54.1448 166.451L54.1529 166.452L54.2471 165.456ZM49.5352 166.555L48.999 165.711L48.9938 165.714L49.5352 166.555ZM47.5576 169.704L48.5476 169.846L48.5507 169.823L48.5529 169.801L47.5576 169.704ZM48.2412 172.048L49.0283 171.431L48.2412 172.048ZM50.3408 173.806L49.8176 174.658L49.8263 174.663L49.8351 174.668L50.3408 173.806ZM53.6123 175.588L54.1423 174.74L54.1065 174.717L54.0689 174.698L53.6123 175.588ZM53.8076 175.71L53.2776 176.558L53.3087 176.577L53.3412 176.595L53.8076 175.71ZM55.1504 176.418L55.6241 175.537L55.6168 175.533L55.1504 176.418ZM63.8174 183.645L64.6975 183.17L64.6915 183.159L63.8174 183.645ZM64.7939 188.845L65.7894 188.94L65.7917 188.916L65.7928 188.892L64.7939 188.845ZM57.2988 197.902L57.6236 198.848L57.6259 198.847L57.2988 197.902ZM50.2432 198.635L50.3452 197.64L50.3318 197.639L50.2432 198.635ZM42.3574 195.925L42.9375 195.11L42.9292 195.104L42.9208 195.099L42.3574 195.925ZM41.332 195.144L40.6309 194.431L39.8512 195.197L40.6844 195.905L41.332 195.144ZM45.7266 190.822L45.1019 191.603C45.2084 191.688 45.3216 191.77 45.4404 191.85L45.9951 191.018L46.5498 190.186C46.4733 190.135 46.4075 190.086 46.3513 190.041L45.7266 190.822ZM45.9951 191.018L45.4471 191.854C47.0091 192.877 48.7856 193.479 50.7558 193.673L50.8535 192.678L50.9513 191.683C49.2756 191.518 47.8132 191.013 46.5431 190.181L45.9951 191.018ZM50.8535 192.678L50.7768 193.675C51.2222 193.709 51.6467 193.727 52.0498 193.727V192.727V191.727C51.7042 191.727 51.3312 191.712 50.9302 191.681L50.8535 192.678ZM52.0498 192.727V193.727C53.8299 193.727 55.4878 193.333 57.006 192.538L56.542 191.652L56.078 190.767C54.8618 191.404 53.5249 191.727 52.0498 191.727V192.727ZM56.542 191.652L57.006 192.538C58.6477 191.678 59.6204 190.319 59.784 188.52L58.7881 188.43L57.7922 188.339C57.6953 189.405 57.1706 190.194 56.078 190.767L56.542 191.652ZM58.7881 188.43L59.7804 188.554C59.801 188.388 59.8125 188.225 59.8125 188.063H58.8125H57.8125C57.8125 188.13 57.8077 188.211 57.7958 188.306L58.7881 188.43ZM58.8125 188.063H59.8125C59.8125 187.091 59.5023 186.175 58.9336 185.331L58.1045 185.891L57.2754 186.45C57.6507 187.006 57.8125 187.539 57.8125 188.063H58.8125ZM58.1045 185.891L58.9482 185.354C58.4177 184.52 57.6736 183.741 56.748 183.007L56.127 183.791L55.5059 184.575C56.3056 185.209 56.8798 185.829 57.2608 186.428L58.1045 185.891ZM56.127 183.791L56.748 183.007C55.8416 182.289 54.8384 181.618 53.7408 180.993L53.2461 181.862L52.7514 182.731C53.7697 183.311 54.6871 183.926 55.5059 184.575L56.127 183.791ZM53.2461 181.862L53.7518 181C52.7967 180.44 51.8413 179.904 50.8854 179.393L50.4141 180.275L49.9427 181.157C50.8749 181.656 51.8074 182.178 52.7404 182.725L53.2461 181.862ZM50.4141 180.275L50.9688 179.443L50.6026 179.199L50.0479 180.031L49.4932 180.863L49.8594 181.107L50.4141 180.275ZM50.0479 180.031L50.5109 179.145C49.4448 178.588 48.3941 177.983 47.3587 177.33L46.8252 178.176L46.2917 179.022C47.3722 179.703 48.4699 180.335 49.5848 180.918L50.0479 180.031ZM46.8252 178.176L47.3646 177.334C46.3847 176.706 45.4995 175.988 44.707 175.181L43.9932 175.881L43.2794 176.581C44.1796 177.499 45.1823 178.311 46.2858 179.018L46.8252 178.176ZM43.9932 175.881L44.7137 175.187C43.9707 174.415 43.397 173.537 42.9891 172.546L42.0645 172.927L41.1398 173.308C41.6433 174.53 42.3555 175.621 43.2726 176.574L43.9932 175.881ZM42.0645 172.927L42.9845 172.535C42.6699 171.796 42.5029 170.947 42.5029 169.973H41.5029H40.5029C40.5029 171.179 40.7104 172.299 41.1444 173.319L42.0645 172.927ZM41.5029 169.973H42.5029C42.5029 169.699 42.5174 169.424 42.5463 169.15L41.5518 169.045L40.5573 168.94C40.5211 169.284 40.5029 169.628 40.5029 169.973H41.5029ZM41.5518 169.045L42.5473 169.139C42.7254 167.254 43.3643 165.673 44.4475 164.359L43.6758 163.723L42.9041 163.087C41.5458 164.735 40.7687 166.702 40.5562 168.951L41.5518 169.045ZM43.6758 163.723L44.4433 164.364C45.5605 163.026 46.9984 162.025 48.7833 161.365L48.4365 160.427L48.0897 159.489C46.001 160.261 44.265 161.457 42.9083 163.082L43.6758 163.723ZM48.4365 160.427L48.7921 161.361C50.1685 160.838 51.6504 160.572 53.2461 160.572V159.572V158.572C51.4238 158.572 49.6993 158.876 48.081 159.492L48.4365 160.427ZM53.2461 159.572V160.572C53.6837 160.572 54.1397 160.595 54.6146 160.641L54.7109 159.646L54.8073 158.65C54.273 158.598 53.7525 158.572 53.2461 158.572V159.572ZM54.7109 159.646L54.6274 160.642C57.1956 160.857 59.2672 161.604 60.8946 162.835L61.498 162.038L62.1015 161.241C60.1156 159.738 57.6624 158.889 54.7945 158.649L54.7109 159.646ZM61.498 162.038L60.8579 162.806L61.1508 163.05L61.791 162.282L62.4312 161.514L62.1382 161.27L61.498 162.038ZM61.791 162.282L61.0839 161.575L56.8359 165.823L57.543 166.53L58.2501 167.237L62.4981 162.989L61.791 162.282ZM57.543 166.53L58.0616 165.675C56.9342 164.991 55.6895 164.588 54.3412 164.46L54.2471 165.456L54.1529 166.452C55.2135 166.552 56.166 166.865 57.0244 167.385L57.543 166.53ZM54.2471 165.456L54.3575 164.462C54.0326 164.426 53.7187 164.407 53.417 164.407V165.407V166.407C53.6361 166.407 53.8757 166.421 54.1366 166.45L54.2471 165.456ZM53.417 165.407V164.407C51.8375 164.407 50.3584 164.847 48.999 165.711L49.5352 166.555L50.0713 167.399C51.1207 166.732 52.2296 166.407 53.417 166.407V165.407ZM49.5352 166.555L48.9938 165.714C47.5646 166.634 46.724 167.95 46.5623 169.607L47.5576 169.704L48.5529 169.801C48.6516 168.789 49.1294 168.005 50.0765 167.395L49.5352 166.555ZM47.5576 169.704L46.5677 169.563C46.5439 169.729 46.5332 169.899 46.5332 170.07H47.5332H48.5332C48.5332 169.981 48.5388 169.907 48.5476 169.846L47.5576 169.704ZM47.5332 170.07H46.5332C46.5332 171.026 46.8543 171.899 47.4542 172.665L48.2412 172.048L49.0283 171.431C48.6841 170.992 48.5332 170.547 48.5332 170.07H47.5332ZM48.2412 172.048L47.4542 172.665C48.0233 173.391 48.8279 174.05 49.8176 174.658L50.3408 173.806L50.8641 172.953C49.9982 172.422 49.4031 171.909 49.0283 171.431L48.2412 172.048ZM50.3408 173.806L49.8351 174.668C50.7989 175.233 51.9063 175.836 53.1558 176.478L53.6123 175.588L54.0689 174.698C52.8443 174.07 51.7708 173.485 50.8465 172.943L50.3408 173.806ZM53.6123 175.588L53.0823 176.436L53.2776 176.558L53.8076 175.71L54.3376 174.862L54.1423 174.74L53.6123 175.588ZM53.8076 175.71L53.3412 176.595L54.684 177.303L55.1504 176.418L55.6168 175.533L54.274 174.825L53.8076 175.71ZM55.1504 176.418L54.6767 177.299C56.574 178.319 58.2536 179.39 59.7194 180.509L60.3262 179.714L60.933 178.919C59.3714 177.727 57.6005 176.6 55.624 175.537L55.1504 176.418ZM60.3262 179.714L59.7194 180.509C61.1385 181.592 62.2048 182.801 62.9432 184.13L63.8174 183.645L64.6915 183.159C63.8023 181.558 62.5412 180.147 60.933 178.919L60.3262 179.714ZM63.8174 183.645L62.9373 184.119C63.5182 185.196 63.8184 186.422 63.8184 187.819H64.8184H65.8184C65.8184 186.124 65.4512 184.567 64.6975 183.17L63.8174 183.645ZM64.8184 187.819H63.8184C63.8184 188.145 63.8106 188.471 63.7951 188.797L64.7939 188.845L65.7928 188.892C65.8098 188.535 65.8184 188.177 65.8184 187.819H64.8184ZM64.7939 188.845L63.7985 188.75C63.6048 190.776 62.9047 192.456 61.7176 193.831L62.4746 194.484L63.2316 195.138C64.7138 193.421 65.5599 191.34 65.7894 188.94L64.7939 188.845ZM62.4746 194.484L61.7176 193.831C60.509 195.231 58.9376 196.277 56.9717 196.957L57.2988 197.902L57.6259 198.847C59.8918 198.063 61.771 196.83 63.2316 195.138L62.4746 194.484ZM57.2988 197.902L56.974 196.957C55.4761 197.471 53.8534 197.732 52.0986 197.732V198.732V199.732C54.0548 199.732 55.8989 199.44 57.6236 198.848L57.2988 197.902ZM52.0986 198.732V197.732C51.5324 197.732 50.9481 197.702 50.3452 197.64L50.2432 198.635L50.1411 199.63C50.8078 199.698 51.4604 199.732 52.0986 199.732V198.732ZM50.2432 198.635L50.3318 197.639C47.3675 197.375 44.9166 196.52 42.9375 195.11L42.3574 195.925L41.7774 196.739C44.0951 198.39 46.9014 199.341 50.1545 199.631L50.2432 198.635ZM42.3574 195.925L42.9208 195.099C42.5915 194.874 42.2779 194.635 41.9797 194.382L41.332 195.144L40.6844 195.905C41.0372 196.205 41.4072 196.487 41.7941 196.751L42.3574 195.925ZM41.332 195.144L42.0332 195.857L46.4277 191.535L45.7266 190.822L45.0254 190.109L40.6309 194.431L41.332 195.144Z" fill="#FFF8F8" mask="url(#path-10-outside-1_737_98)"/>
<path d="M73.1 203C73.1 202.667 73.2667 202.5 73.6 202.5H87.1C87.5333 202.5 87.8667 202.383 88.1 202.15C88.3333 201.917 88.5 201.633 88.6 201.3C88.7333 201 88.8 200.65 88.8 200.25C88.8333 199.883 88.85 199.55 88.85 199.25V198H81.4C80.1 198 78.8 197.733 77.5 197.2C76.2333 196.667 75.0833 195.883 74.05 194.85C73.0167 193.783 72.1667 192.5 71.5 191C70.8667 189.467 70.55 187.717 70.55 185.75V182.55C70.55 181.183 70.75 179.867 71.15 178.6C71.55 177.333 72.1667 176.217 73 175.25C73.8333 174.25 74.9 173.45 76.2 172.85C77.5333 172.25 79.1 171.95 80.9 171.95H92.45C93.2833 171.95 93.95 172.15 94.45 172.55C94.95 172.917 95.2 173.533 95.2 174.4V201.2C95.2 201.9 95.0167 202.65 94.65 203.45C94.3167 204.283 93.85 205.033 93.25 205.7C92.65 206.4 91.95 206.967 91.15 207.4C90.35 207.867 89.5 208.1 88.6 208.1H73.6C73.2667 208.1 73.1 207.933 73.1 207.6V203ZM77.25 185.15C77.25 186.317 77.3667 187.317 77.6 188.15C77.8667 188.983 78.3 189.683 78.9 190.25C79.5 190.817 80.3 191.233 81.3 191.5C82.3333 191.767 83.6167 191.9 85.15 191.9H88.35C88.6833 191.9 88.85 191.733 88.85 191.4V178.55C88.85 178.217 88.6833 178.05 88.35 178.05H81.8C80.2 178.05 79.0333 178.567 78.3 179.6C77.6 180.633 77.25 182.05 77.25 183.85V185.15ZM104.673 187.9C104.339 187.9 104.173 188.067 104.173 188.4C104.173 188.9 104.306 189.367 104.573 189.8C104.839 190.2 105.189 190.567 105.623 190.9C106.089 191.2 106.639 191.45 107.273 191.65C107.906 191.817 108.573 191.9 109.273 191.9H121.173C121.506 191.9 121.673 192.067 121.673 192.4V197.5C121.673 197.833 121.506 198 121.173 198H112.723C109.923 198 107.573 197.767 105.673 197.3C103.806 196.833 102.289 196.1 101.123 195.1C99.9893 194.067 99.1727 192.767 98.6727 191.2C98.206 189.633 97.9727 187.75 97.9727 185.55C97.9727 182.883 98.3727 180.683 99.1727 178.95C100.006 177.183 101.073 175.783 102.373 174.75C103.706 173.717 105.189 173 106.823 172.6C108.489 172.167 110.156 171.95 111.823 171.95C113.889 171.95 115.673 172.2 117.173 172.7C118.673 173.167 119.906 173.85 120.873 174.75C121.839 175.617 122.539 176.683 122.973 177.95C123.439 179.217 123.673 180.633 123.673 182.2V187.4C123.673 187.733 123.506 187.9 123.173 187.9H104.673ZM104.673 182.05H117.523C117.856 182.05 118.023 181.883 118.023 181.55C118.023 180.283 117.439 179.283 116.273 178.55C115.106 177.783 113.473 177.4 111.373 177.4C110.706 177.4 109.956 177.5 109.123 177.7C108.323 177.9 107.539 178.183 106.773 178.55C106.039 178.883 105.423 179.317 104.923 179.85C104.423 180.35 104.173 180.917 104.173 181.55C104.173 181.883 104.339 182.05 104.673 182.05ZM133.449 178.75V196.4C133.449 197.467 132.982 198 132.049 198H128.699C128.232 198 127.882 197.8 127.649 197.4C127.449 197 127.349 196.533 127.349 196V175.25C127.349 174.417 127.682 173.667 128.349 173C129.049 172.3 129.932 171.95 130.999 171.95H142.299C143.499 171.95 144.615 172.2 145.649 172.7C146.682 173.167 147.582 173.8 148.349 174.6C149.149 175.4 149.765 176.317 150.199 177.35C150.632 178.383 150.849 179.45 150.849 180.55V197.5C150.849 197.833 150.665 198 150.299 198H145.249C144.915 198 144.749 197.833 144.749 197.5V181.6C144.749 180.767 144.615 180.083 144.349 179.55C144.115 179.017 143.765 178.6 143.299 178.3C142.865 178 142.349 177.8 141.749 177.7C141.149 177.567 140.499 177.5 139.799 177.5H134.949C134.582 177.5 134.232 177.633 133.899 177.9C133.599 178.167 133.449 178.45 133.449 178.75Z" fill="white"/>
</svg>
